<?xml version="1.0" encoding="UTF-8" standalone="no"?>
<svg xmlns="http://www.w3.org/2000/svg" viewBox="0 0 210 210"><style>.logo{fill:#fff}.background{fill:#000}@media(prefers-color-scheme:dark){.logo{fill:#000}.background{fill:#fff}}</style><path class="background" d="M73.14 0C52.09 0 41.55 0 30.3 3.5A44.554 44.554 0 0 0 3.59 30.22C0 41.59 0 52.11 0 73.17v63.55c0 21.18 0 31.61 3.5 42.95a44.554 44.554 0 0 0 26.71 26.72c11.36 3.6 21.88 3.6 42.93 3.6h63.62c21.08 0 31.59 0 42.93-3.6a44.529 44.529 0 0 0 26.71-26.72c3.59-11.37 3.59-21.89 3.59-42.95V73.26c0-21.09 0-31.61-3.59-42.95a44.554 44.554 0 0 0-26.71-26.72c-11.44-3.6-21.85-3.6-43.03-3.6H73.14Z" /><path class="logo" d="M110.25 68.83c10.32.02 20.29 3.68 28.17 10.35a4.295 4.295 0 0 0 5.9-.12l8.11-8.14a4.155 4.155 0 0 0 .02-5.88c-.08-.08-.16-.15-.24-.22a64.394 64.394 0 0 0-21.68-12.15l2.43-11.98c.47-2.29-1-4.52-3.29-4.99-.28-.06-.57-.09-.86-.09H113.2c-1.99 0-3.72 1.38-4.15 3.33l-2.19 10.71c-20.79 1.02-38.42 11.32-38.42 32.43 0 18.25 14.57 26.09 29.97 31.58 14.57 5.42 22.29 7.43 22.29 15.06s-7.7 12.44-19.04 12.44a41.874 41.874 0 0 1-29.6-11.59 4.225 4.225 0 0 0-5.93 0l-8.69 8.5a4.201 4.201 0 0 0-.11 5.94c.03.04.07.07.11.11a57.436 57.436 0 0 0 25.13 13.77l-2.43 11.1a4.324 4.324 0 0 0 4.13 5.2h15.66c2.01.01 3.75-1.39 4.18-3.35l2.26-10.52c24.91-1.53 40.14-14.94 40.14-34.57 0-18.07-15.18-25.7-33.61-31.92-10.54-3.96-19.65-6.56-19.65-14.38s8.5-10.64 17-10.64Z" /></svg>