<svg width="20" height="17" viewBox="0 0 20 17" xmlns="http://www.w3.org/2000/svg"><path d="M17.965 4.58c0-.178-.004-.355-.012-.531A8.348 8.348 0 0 0 20 1.924a8.193 8.193 0 0 1-2.356.646A4.118 4.118 0 0 0 19.448.3c-.793.47-1.67.812-2.606.996A4.104 4.104 0 0 0 9.85 5.038 11.65 11.65 0 0 1 1.393.753a4.09 4.09 0 0 0-.556 2.062 4.1 4.1 0 0 0 1.826 3.415 4.073 4.073 0 0 1-1.858-.513l-.001.052a4.105 4.105 0 0 0 3.292 4.023 4.115 4.115 0 0 1-1.853.07 4.108 4.108 0 0 0 3.833 2.85A8.234 8.234 0 0 1 .98 14.469c-.331 0-.658-.019-.979-.057a11.616 11.616 0 0 0 6.29 1.843c7.547 0 11.675-6.253 11.675-11.675z" fill="#CDCDCD" fill-rule="evenodd"/></svg>