<svg width="27" height="24" viewBox="0 0 27 24" fill="none" xmlns="http://www.w3.org/2000/svg">
<mask id="mask0_84_622" style="mask-type:luminance" maskUnits="userSpaceOnUse" x="0" y="0" width="27" height="24">
<path fill-rule="evenodd" clip-rule="evenodd" d="M0 0H26.5546V23.2349H0V0Z" fill="white"/>
</mask>
<g mask="url(#mask0_84_622)">
<path fill-rule="evenodd" clip-rule="evenodd" d="M2.78841 21.193H23.7664L13.2764 3.02694L2.78841 21.193ZM25.534 23.2349H1.02073C0.655837 23.2349 0.318367 23.0405 0.136653 22.7246C-0.045551 22.4077 -0.045551 22.0198 0.136653 21.7038L12.3923 0.474612C12.7572 -0.158204 13.7966 -0.158204 14.161 0.474612L26.4181 21.7038C26.6003 22.0198 26.6003 22.4077 26.4181 22.7246C26.2359 23.0405 25.8984 23.2349 25.534 23.2349Z" fill="#333366"/>
</g>
<path fill-rule="evenodd" clip-rule="evenodd" d="M13.3142 16.3634C12.4365 16.3634 11.7244 17.0756 11.7244 17.9533C11.7244 18.8285 12.4365 19.5466 13.3142 19.5466C14.1959 19.5466 14.9075 18.8285 14.9075 17.9533C14.9075 17.0756 14.1959 16.3634 13.3142 16.3634Z" fill="#333366"/>
<path fill-rule="evenodd" clip-rule="evenodd" d="M14.3995 14.7098C14.3456 15.2481 14.0928 15.517 13.6403 15.517H13.0089C12.8042 15.517 12.6401 15.4622 12.5172 15.352C12.3688 15.2183 12.2796 15.0047 12.2497 14.7098L11.7487 9.5043C11.7159 9.17026 11.6997 8.95475 11.6997 8.85728C11.6997 8.12503 12.2395 7.75916 13.3165 7.75916C14.3941 7.75916 14.9333 8.12503 14.9333 8.85728C14.9333 9.0625 14.9211 9.27801 14.9 9.5043L14.3995 14.7098Z" fill="#333366"/>
</svg>
