<svg id="Outlined_Icons" xmlns="http://www.w3.org/2000/svg" viewBox="0 0 83.96 84.16"><defs><style>.cls-1{fill:#192a4f;}.cls-2{fill:#162a4f;}</style></defs><title>Accessibility_Landing</title><path class="cls-1" d="M649.43,212.34a.93.93,0,0,0-.27.67,1,1,0,0,0,0,.27.94.94,0,0,0,.71.66l18.91,2.69a.93.93,0,0,0,.87-.27,1,1,0,0,0,.25-.87L667.39,202l-.47-2-.62-2.69a.93.93,0,0,0-.66-.7.91.91,0,0,0-.53,0,1,1,0,0,0-.41.23Z" transform="translate(-594.61 -193.85)"/><path class="cls-2" d="M669.58,231.24l8.84-1.29a42.18,42.18,0,0,0-3-10.57l-8.21,3.52A33.38,33.38,0,0,1,669.58,231.24Z" transform="translate(-594.61 -193.85)"/><path class="cls-2" d="M642,268.66l1.43,8.82A42.24,42.24,0,0,0,654,274.32l-3.66-8.15A33.4,33.4,0,0,1,642,268.66Z" transform="translate(-594.61 -193.85)"/><path class="cls-2" d="M663.58,255.32a33.19,33.19,0,0,1-5.93,6.31l5.65,6.92a42.21,42.21,0,0,0,7.54-8l0,0-7.25-5.22Z" transform="translate(-594.61 -193.85)"/><path class="cls-2" d="M669.69,239.21a33.15,33.15,0,0,1-2,8.42l8.36,3.16a41.92,41.92,0,0,0,2.5-10.7Z" transform="translate(-594.61 -193.85)"/><path class="cls-2" d="M640.26,203c.59.06,1.18.14,1.77.23l.34.06c.62.11,1.24.23,1.85.37h.07c.66.16,1.32.34,2,.53l.17.05c.66.2,1.31.42,2,.67a33,33,0,0,1,6.13,3.08l6.43-6.44a41.89,41.89,0,0,0-10.59-5.43l-.15,0L649,195.7l-.22-.07-1.15-.33-.21-.05q-1.56-.41-3.15-.7l-.88-.16-.54-.08-1.05-.14-.43-.05-.54-.06h0c-1.38-.14-2.78-.21-4.18-.21a42.2,42.2,0,0,0-6.79.56h0l-1.42.26-.78.17-1,.23-.74.18q-.79.21-1.55.44l-.55.17-1.41.48-.29.1c-.94.34-1.86.72-2.77,1.13v0a42.09,42.09,0,0,0-9.33,5.79l0,0a42.15,42.15,0,0,0-6.89,7.2l-.21.28c-.14.18-.28.35-.41.54l0,0h0a42,42,0,0,0-5.18,9.62h0a42.25,42.25,0,0,0-1.38,4.38v.05q-.51,2-.83,4l0,.12q-.16,1.06-.27,2.13h0c-.14,1.38-.21,2.78-.21,4.2a41.92,41.92,0,0,0,.55,6.77h0q.12.72.26,1.44c.05.26.11.52.17.78s.15.68.23,1,.12.49.18.73q.21.78.44,1.56l.18.55c.15.47.31.94.48,1.41l.1.29q.51,1.39,1.12,2.75h0a42.17,42.17,0,0,0,5.79,9.34l0,0a42.12,42.12,0,0,0,7.35,7l.11.08.53.41h0l0,0a42,42,0,0,0,9.66,5.22v0a41.9,41.9,0,0,0,8.5,2.23h.06c.71.11,1.42.2,2.14.28h0c1.39.14,2.8.21,4.22.21v-8.93a33.19,33.19,0,0,1-4-.25c-.41,0-.81-.1-1.22-.16l-.94-.17-.94-.19-1-.22-.9-.24c-.57-.16-1.13-.33-1.69-.52l-.81-.28a33.09,33.09,0,0,1-8.37-4.54l-.1-.08a33.33,33.33,0,0,1-10.5-13.31q-.23-.54-.44-1.08c-.08-.21-.17-.41-.25-.62-.22-.61-.43-1.22-.62-1.84l-.09-.32q-.24-.83-.44-1.66l-.09-.4q-.2-.89-.35-1.79a32.71,32.71,0,0,1-.24-9.22c.05-.49.12-1,.19-1.45,0-.29.1-.58.16-.87s.13-.68.2-1,.14-.61.21-.92.17-.64.26-1c.14-.49.28-1,.44-1.45s.22-.68.35-1a33.11,33.11,0,0,1,4.55-8.37l.06-.08a33.35,33.35,0,0,1,13.32-10.52l1.05-.43.64-.25c.61-.22,1.22-.43,1.83-.62l.31-.09q.83-.24,1.67-.45l.4-.09q.87-.19,1.76-.35a33.15,33.15,0,0,1,5.52-.47A33.77,33.77,0,0,1,640.26,203Z" transform="translate(-594.61 -193.85)"/><path class="cls-1" d="M615.55,244l8.68-7.12c3.24-2.68,4.51-4.1,4.51-6.26a3.2,3.2,0,0,0-3.5-3.39c-2,0-3.39,1.12-5.33,3.5l-4-3.24c2.57-3.5,5.07-5.4,9.73-5.4,5.4,0,9,3.17,9,8v.07c0,4.36-2.24,6.52-6.86,10.1l-4.25,3.28h11.37v5h-19.3Z" transform="translate(-594.61 -193.85)"/><path class="cls-1" d="M649.72,242.94H637l-.93-4.06,14.31-16.58h4.84v16h3.5v4.66h-3.5v5.63h-5.48Zm0-4.66v-8.12l-6.93,8.12Z" transform="translate(-594.61 -193.85)"/></svg>