<svg id="Outlined_Icons" xmlns="http://www.w3.org/2000/svg" viewBox="0 0 86.71 56.71"><defs><style>.cls-1{fill:#336;}</style></defs><title>Privacy_Landing</title><path class="cls-1" d="M162.27,479.66A83.51,83.51,0,0,0,150,466.55a63.63,63.63,0,0,0-13.44-9.08,38.7,38.7,0,0,0-17-4.25,38.7,38.7,0,0,0-17,4.25A63.67,63.67,0,0,0,89,466.55a83.5,83.5,0,0,0-12.26,13.11,3.28,3.28,0,0,0,0,3.81A83.53,83.53,0,0,0,89,496.59a63.67,63.67,0,0,0,13.44,9.08,38.7,38.7,0,0,0,17,4.25,38.7,38.7,0,0,0,17-4.25A63.63,63.63,0,0,0,150,496.59a83.48,83.48,0,0,0,12.26-13.11A3.28,3.28,0,0,0,162.27,479.66Zm-16.59,12c-6.19,5.34-15.75,11.71-26.16,11.71s-20-6.37-26.16-11.71a81.15,81.15,0,0,1-9.78-10.1,81.22,81.22,0,0,1,9.74-10.06c6.2-5.36,15.77-11.74,26.2-11.74s20,6.37,26.16,11.71a81.34,81.34,0,0,1,9.78,10.1A81.22,81.22,0,0,1,145.69,491.67Z" transform="translate(-76.17 -453.21)"/><path class="cls-1" d="M119.53,462.25a19.31,19.31,0,1,0,19.32,19.31A19.34,19.34,0,0,0,119.53,462.25Zm0,32.08a12.76,12.76,0,1,1,12.76-12.76A12.78,12.78,0,0,1,119.53,494.33Z" transform="translate(-76.17 -453.21)"/><path class="cls-1" d="M119.53,472.62a8.95,8.95,0,1,0,8.95,8.95A9,9,0,0,0,119.53,472.62Z" transform="translate(-76.17 -453.21)"/></svg>