<svg width="14" height="14" viewBox="0 0 14 14" fill="none" xmlns="http://www.w3.org/2000/svg">
<path d="M14 7C14 3.13833 10.8617 0 7 0C3.13833 0 0 3.13833 0 7C0 10.8617 3.13833 14 7 14C10.8617 14 14 10.8617 14 7ZM1.365 7C1.365 3.89667 3.89083 1.365 7 1.365C10.1092 1.365 12.635 3.89083 12.635 7C12.635 10.1092 10.1092 12.635 7 12.635C3.89083 12.635 1.365 10.1092 1.365 7ZM6.51 3.94917C6.51 3.4125 6.9475 2.975 7.48417 2.975C8.02083 2.975 8.46417 3.4125 8.46417 3.94917C8.46417 4.48583 8.02667 4.92917 7.48417 4.92917C6.94167 4.92917 6.51 4.49167 6.51 3.94917ZM6.09583 7.41417C6.195 7.08167 6.2475 6.83667 6.25333 6.76667C6.25333 6.76667 6.24167 6.76667 6.23 6.76667C6.18917 6.76667 6.02 6.78417 5.78083 6.825L5.44833 6.8775V6.5975L6.5275 5.74L7.9975 5.67L6.8075 9.89333C6.79583 9.93417 6.78417 9.96917 6.7725 10.01C6.65 10.3658 7.99167 9.74167 7.99167 9.74167L7.83417 9.98083C7.57167 10.3717 7.2625 10.7158 6.90667 10.99C6.6325 11.2058 6.34083 11.3342 6.03167 11.3342H6.02C5.82167 11.3342 5.6175 11.2642 5.47167 11.1242C5.32 10.99 5.23833 10.7858 5.23833 10.5875C5.23833 10.3892 5.29083 10.1617 5.38417 9.84083L6.08417 7.42L6.09583 7.41417Z" fill="white"/>
</svg>
