<svg width="30" height="28" viewBox="0 0 30 28" fill="none" xmlns="http://www.w3.org/2000/svg">
<path d="M22.1413 15.1613C22.1413 15.1321 22.1588 15.103 22.188 15.0738V15.0271C22.3689 14.893 22.3689 15.208 22.5032 15.1613C22.6374 15.1146 22.5499 14.9396 22.5032 14.893C22.4565 14.8463 22.3222 14.8463 22.2755 14.8055C22.2288 14.8055 22.188 14.7588 22.1413 14.718C22.0946 14.6305 22.007 14.5371 21.9603 14.4963C21.8727 14.4088 21.6451 14.0471 21.826 13.913C22.0537 13.7788 22.2288 14.4963 22.3222 14.1813C22.3689 14.0005 22.2755 13.8196 22.3222 13.6446C22.3222 13.5571 22.4098 13.5105 22.4565 13.4638C22.5032 13.3763 22.5907 13.3296 22.5907 13.1955C22.6374 12.968 22.4098 12.793 22.5907 12.653C22.725 12.5188 22.9527 12.4721 23.0869 12.3846C23.1336 12.338 23.1745 12.338 23.2212 12.2971C23.3087 12.2505 23.4021 12.2096 23.4897 12.163C23.5773 12.1163 23.7582 12.1163 23.8049 12.0288C23.8925 11.8071 23.5831 11.8946 23.443 11.8071C23.3087 11.7196 23.3963 11.358 23.4897 11.2238C23.6707 10.8621 24.2077 10.6405 24.2544 10.2788C23.7582 10.0105 23.9392 10.0571 23.7582 9.64881C23.624 9.38048 23.5364 9.38048 23.3554 9.46798C23.2679 9.51465 23.2212 9.51465 23.0869 9.55548C23.0402 9.82381 23.1336 10.273 23.0402 10.5005C22.9935 10.588 22.9527 10.6813 22.8593 10.7688C22.6374 10.9496 22.3631 10.9496 22.0946 11.0371C21.6918 11.218 21.7793 11.3055 21.5575 11.7138C21.289 12.1163 20.9271 11.9821 20.7053 12.3438C20.571 12.5713 20.39 12.793 20.1682 12.9271C20.034 13.0146 19.672 13.2421 19.5378 13.0613C19.4911 13.0146 19.5378 12.9271 19.5378 12.8396C19.5845 12.5713 19.4911 12.2096 19.3568 11.988C19.3101 12.1221 19.0883 12.1688 18.9949 12.0346C18.9482 11.9005 19.0416 11.7663 18.9949 11.673C18.9949 11.5388 18.9482 11.4513 18.9073 11.358C18.236 11.3113 18.3236 12.3438 18.3236 12.7463C18.2769 13.108 18.1893 13.423 17.9208 13.0146C17.6523 12.6121 17.9675 12.1163 18.0084 11.7196C17.9208 11.8538 17.7866 11.7663 17.8741 11.6321C17.9208 11.5446 18.0551 11.4513 18.1426 11.4105C18.2769 11.323 18.7264 11.2296 18.7731 11.0488C18.8198 10.8271 18.236 10.9146 18.0959 10.9146C18.0025 10.9146 17.8274 10.9146 17.734 10.868C17.734 10.868 17.5531 10.7338 17.5998 10.7338C17.5122 10.7805 17.5122 10.868 17.4188 10.9146C17.3312 10.9613 17.1503 11.0021 17.016 10.9613C16.9285 10.9146 16.8818 10.8271 16.8818 10.7396C16.8818 10.6521 16.9693 10.6055 17.016 10.5588C16.8818 10.5588 16.7475 10.4713 16.6132 10.4246C16.479 10.378 16.3447 10.378 16.2105 10.3371C16.0295 10.2905 15.8485 10.2905 15.6267 10.2496H15.58C15.2181 10.203 10.4256 9.66631 9.12385 9.35131C8.80863 9.26381 8.49342 9.17048 8.1782 9.08298C7.90968 8.99548 7.64115 8.90215 7.3668 8.76798C7.3201 8.76798 7.27924 8.72131 7.23254 8.72131V9.03631C7.23254 9.12381 7.18584 9.17048 7.14498 9.21715C7.09828 9.26381 7.05741 9.26381 7.01072 9.26381C7.01072 9.21715 7.05741 9.12965 7.09828 9.08298C6.73636 8.54048 6.6021 8.90215 6.56124 9.30465C6.51454 9.80048 6.24602 10.2496 6.11176 10.7338C5.88993 11.3638 5.66228 11.988 5.61558 12.6121C5.61558 12.793 5.52802 13.1955 5.61558 13.3763C5.66228 13.4638 5.79654 13.4638 5.8841 13.5571C6.01836 13.6913 5.79654 13.8255 5.79654 13.9188C5.79654 14.0996 5.8841 14.2805 5.9308 14.4146C6.01836 14.683 6.11176 14.9513 6.24602 15.1788C6.38028 15.4005 6.51454 15.628 6.6955 15.8555C6.96402 16.2171 7.32593 16.5263 7.67618 16.8005C8.30662 17.2496 9.01878 17.5646 9.73678 17.6988C10.052 17.7455 10.2738 17.6521 10.5015 17.6521C10.8634 17.6521 11.0852 17.833 11.307 18.0546C11.3946 18.1421 11.488 18.2763 11.5756 18.4163C11.7098 18.638 11.8441 18.953 12.1593 18.9996C12.6555 19.0871 12.924 18.5971 13.2742 19.1338C13.5428 19.4955 13.4552 20.0788 13.7704 20.4288C13.9047 20.6096 14.4417 20.7438 14.576 20.563C14.7102 20.3821 14.4884 20.0263 14.6635 19.7521C14.8445 19.4838 15.2006 19.2563 15.4282 18.988C15.7435 18.6263 16.3739 18.988 16.7242 19.0755C16.9051 19.1221 17.1269 19.163 17.3546 19.1221C17.5822 19.0755 17.7165 19.0346 17.5823 18.8071C17.5356 18.673 17.4013 18.673 17.5823 18.5388C17.6698 18.4513 17.8041 18.4513 17.9442 18.4513C18.166 18.4046 18.4403 18.4513 18.6622 18.4513C18.7964 18.4513 18.9774 18.498 19.1117 18.498C19.2459 18.498 19.3802 18.4513 19.4736 18.498C19.7012 18.5446 19.7421 18.813 19.8355 18.9938C19.8822 19.0405 19.8822 19.128 19.923 19.1746C20.0106 19.3088 20.104 19.4896 20.1449 19.6238C20.1916 19.7113 20.2791 19.8046 20.3258 19.8921C20.5068 20.1605 20.7286 20.4288 21.003 20.6096C21.2248 20.7438 21.3182 20.6563 21.3649 20.4288C21.4991 20.0263 21.3182 19.4838 21.1431 19.0871V19.0405C21.0088 18.8188 20.8745 18.5038 20.8278 18.1888C20.7811 17.8738 20.7811 17.5121 21.0497 17.2905C21.1372 17.203 21.2306 17.1563 21.3182 17.1096C21.4057 17.063 21.4524 16.9755 21.54 16.888C21.5867 16.8005 21.6743 16.7538 21.721 16.7071C21.9019 16.5263 22.0362 16.3455 22.1704 16.1238C22.3047 15.943 22.3923 15.6746 22.258 15.453C22.2113 15.2313 22.1704 15.2313 22.1237 15.1846" fill="#333366"/>
<path d="M14.8386 28C13.2684 28 11.704 27.7317 10.2213 27.1892C8.20735 26.4717 6.45613 25.3983 4.97927 23.8758C3.09963 21.9975 1.84458 19.6642 1.26084 17.1092C1.03902 16.0825 0.898926 15.0033 0.898926 13.9767C0.898926 10.2608 2.32909 6.72583 4.97927 4.0775C7.62945 1.42917 11.1202 0 14.8853 0C15.3348 0 15.7843 0.0466667 16.0937 0.0466667C19.3626 0.315 22.4565 1.75 24.7914 4.0775C25.1942 4.48 25.6028 4.97583 26.0465 5.55333C29.8116 10.5292 29.8116 17.4242 26.0465 22.3942C25.597 22.9775 25.1942 23.4208 24.7914 23.87C23.3145 25.3458 21.5225 26.4658 19.5494 27.1833C17.9792 27.72 16.4147 27.9942 14.8445 27.9942L14.8386 28ZM14.8386 2.695C11.8324 2.695 8.96622 3.85583 6.85891 6.00833C4.70491 8.16083 3.54327 10.9842 3.54327 13.9825C3.54327 14.7933 3.63083 15.6392 3.85849 16.4908C4.35467 18.55 5.38205 20.4342 6.86475 21.9508C8.07309 23.1583 9.50909 24.0567 11.1202 24.5933C13.5836 25.445 16.1812 25.445 18.6038 24.5933C20.2149 24.01 21.6509 23.1175 22.8592 21.9508C23.1744 21.6358 23.5364 21.2333 23.8866 20.79C26.9337 16.8058 26.9337 11.2058 23.8866 7.175C23.5247 6.67917 23.2153 6.32333 22.8592 6.01417C20.9329 4.08917 18.5104 2.975 15.8252 2.7475C15.5566 2.7475 15.1947 2.70083 14.8386 2.70083H14.8445L14.8386 2.695Z" fill="#333366"/>
</svg>
