<svg width="42" height="65" viewBox="0 0 42 65" fill="none" xmlns="http://www.w3.org/2000/svg">
<path fill-rule="evenodd" clip-rule="evenodd" d="M20.4232 62.6325C19.6254 61.6732 0.900879 38.9389 0.900879 21.4059C0.900879 10.2936 9.91752 1.25195 20.999 1.25195C32.082 1.25195 41.0986 10.2936 41.0986 21.4059C41.0986 38.9389 22.3726 61.6732 21.5748 62.6325L20.999 63.3257L20.4232 62.6325Z" fill="#020969" stroke="#020969"/>
<mask id="mask0_1702_10411" style="mask-type:luminance" maskUnits="userSpaceOnUse" x="0" y="0" width="42" height="65">
<path fill-rule="evenodd" clip-rule="evenodd" d="M0.151367 0.5H41.8483V64.5H0.151367V0.5Z" fill="white"/>
</mask>
<g mask="url(#mask0_1702_10411)">
<ellipse cx="21.1446" cy="24.56" rx="10.4967" ry="10.5258" fill="white"/>
<path fill-rule="evenodd" clip-rule="evenodd" d="M20.9993 0.5C9.5039 0.5 0.151367 9.87851 0.151367 21.4058C0.151367 28.9272 3.47881 38.2471 10.0422 49.1067C14.8827 57.1139 19.6467 62.873 19.8476 63.1136L20.9993 64.5L22.1509 63.1136C22.9561 62.1467 41.8486 39.208 41.8486 21.4058C41.8486 9.87851 32.4961 0.5 20.9993 0.5ZM20.9991 2.00369C31.6863 2.00369 40.349 10.6905 40.349 21.4058C40.349 38.8681 20.9991 62.1512 20.9991 62.1512C20.9991 62.1512 1.65079 38.8681 1.65079 21.4058C1.65079 10.6905 10.3135 2.00369 20.9991 2.00369Z" fill="white"/>
</g>
</svg>
