<svg width="20" height="20" viewBox="0 0 20 20" fill="none" xmlns="http://www.w3.org/2000/svg">
<path d="M10.0042 0C4.48789 0 0 4.48789 0 10.0042C0 15.5206 4.48789 20.0085 10.0042 20.0085C15.5206 20.0085 20.0085 15.5206 20.0085 10.0042C20.0085 4.48789 15.5121 0 10.0042 0ZM10.0042 17.9855C5.60136 17.9855 2.02295 14.4071 2.02295 10.0042C2.02295 5.60136 5.60136 2.02295 10.0042 2.02295C14.4071 2.02295 17.9855 5.60136 17.9855 10.0042C17.9855 14.4071 14.4071 17.9855 10.0042 17.9855ZM10.0042 15.9711C9.13727 15.9711 8.43179 15.2656 8.43179 14.3986C8.43179 13.5317 9.13727 12.8262 10.0042 12.8262C10.8712 12.8262 11.5767 13.5317 11.5767 14.3986C11.5767 15.2656 10.8712 15.9711 10.0042 15.9711ZM8.95028 11.2027L8.45729 6.06885C8.42329 5.73736 8.40629 5.52486 8.40629 5.43136C8.40629 4.70888 8.94178 4.35189 10.0042 4.35189C11.0667 4.35189 11.6022 4.70888 11.6022 5.43136C11.6022 5.63536 11.5937 5.84785 11.5682 6.06885L11.0752 11.2027C11.0242 11.7297 10.7692 12.0017 10.3272 12.0017H9.70676C9.50276 12.0017 9.34127 11.9507 9.22227 11.8402C9.07777 11.7042 8.98427 11.5002 8.95878 11.2027H8.95028Z" fill="#333366"/>
</svg>
