<svg width="20" height="18" viewBox="0 0 20 18" fill="none" xmlns="http://www.w3.org/2000/svg">
<path d="M1.55468 8.8903C1.55468 12.553 4.66403 15.5482 8.32675 15.5482C11.6557 15.5482 14.4313 13.1064 14.9846 9.89161L16.6447 8.67071V9.00448C16.6447 13.5543 12.982 17.3224 8.32675 17.3224C3.6715 17.3224 0 13.5455 0 8.9957C0 4.44585 3.66271 0.677734 8.31796 0.677734C10.6456 0.677734 12.7536 1.67905 14.3083 3.23373L13.0874 4.23505C11.8665 3.01414 10.2064 2.2412 8.31796 2.2412C4.54985 2.23241 1.55468 5.22758 1.55468 8.8903ZM19.5257 4.45463C20.0791 3.90127 20.1932 3.01414 19.6399 2.3466C19.0865 1.67905 18.1994 1.67905 17.5318 2.12701L9.09969 9.22407L6.65788 6.78226C6.10452 6.2289 5.21739 6.2289 4.54985 6.78226C3.99649 7.33562 3.99649 8.22275 4.54985 8.8903L8.98551 13.2206L19.5257 4.45463Z" fill="#218748"/>
</svg>
