<svg width="24" height="20" viewBox="0 0 24 20" fill="none" xmlns="http://www.w3.org/2000/svg">
<path d="M23.3138 18.686L12.7631 0.405797C12.6085 0.135266 12.309 0 11.9998 0C11.7003 0 11.4007 0.135266 11.2365 0.405797L0.685766 18.686C0.531177 18.9565 0.531177 19.2947 0.685766 19.5652C0.840356 19.8357 1.13021 20.0097 1.44905 20.0097H22.5505C22.8597 20.0097 23.1592 19.8454 23.3138 19.5652C23.3911 19.43 23.4297 19.2754 23.4297 19.1304C23.4297 18.9758 23.3911 18.8309 23.3138 18.686ZM2.97562 18.2415L11.9998 2.6087L21.0336 18.2415H2.96596H2.97562ZM13.4104 15.4493C13.4104 16.2029 12.8017 16.8213 12.0384 16.8213C11.2751 16.8213 10.6664 16.2029 10.6664 15.4493C10.6664 14.6957 11.2751 14.0773 12.0384 14.0773C12.8017 14.0773 13.4104 14.686 13.4104 15.4493ZM12.0384 6.67633C12.966 6.67633 13.4297 6.99517 13.4297 7.62319C13.4297 7.7971 13.4201 7.99034 13.4007 8.18357L12.966 12.6667C12.9177 13.1304 12.7051 13.3623 12.309 13.3623H11.7679C11.594 13.3623 11.4491 13.314 11.3428 13.2174C11.2172 13.1014 11.1399 12.9179 11.1109 12.6667L10.6761 8.18357C10.6471 7.89372 10.6375 7.71014 10.6375 7.62319C10.6375 6.99517 11.1012 6.67633 12.0288 6.67633H12.0384Z" fill="#333366"/>
</svg>
