<?xml version="1.0" encoding="UTF-8"?>
<svg id="Layer_1" data-name="Layer 1" xmlns="http://www.w3.org/2000/svg" version="1.1" viewBox="0 0 1308.6680908 210">
  <defs>
    <style>
      .cls-1, .cls-2 {
        fill: #000;
        stroke-width: 0px;
      }

      .cls-2 {
        fill-rule: evenodd;
      }
    </style>
  </defs>
  <path class="cls-2" d="M206.3887939,30.3209229c-4.5-12.4257202-14.2919312-22.2175903-26.7094727-26.7176514-11.4400024-3.6032715-21.8459473-3.6032715-43.0293579-3.6032715h-63.5179443l.0081177.0080566C52.0859375.0080566,41.5507812.0080566,30.2966309,3.5063477,17.8790283,8.0064087,8.0871582,17.7982788,3.5870972,30.2320557,0,41.5993042,0,52.1183472,0,73.180542v63.5500488c0,21.175293,0,31.6054688,3.49823,42.9484863,4.500061,12.4257202,14.2919312,22.2175903,26.7095337,26.7176514,11.3591919,3.6032715,21.8781738,3.6032715,42.932373,3.6032715h63.6148682c21.0783691,0,31.5892944,0,42.9243164-3.6032715,12.4256592-4.500061,22.2094727-14.2919312,26.7094727-26.7176514,3.5871582-11.3672485,3.5871582-21.8862915,3.5871582-42.9484863v-63.4611816c0-21.0864258,0-31.6054688-3.5871582-42.9484863ZM151.2609253,71.8832397l-12.1077881,9.9284058c-1.0521851.8627319-2.5882568.6743774-3.4437256-.383728-6.1536255-7.6110229-15.8410034-11.9123535-26.3348389-11.9123535-11.6945801,0-18.9641113,5.0570679-18.9641113,12.3266602,0,6.0053101,5.689209,9.1659546,23.072998,12.9588013,22.1247559,4.7410278,32.2389526,13.9070435,32.2389526,29.3943481,0,19.4154053-15.8096924,33.7471313-40.489502,35.2639771l-2.407959,11.4842529c-.2353516,1.1224365-1.2252808,1.9263306-2.3721313,1.9263306h-18.9868164c-1.5648193,0-2.7195435-1.4607544-2.3582764-2.9833374l3.0474854-12.8428955c-12.2333984-3.4805298-22.0773315-10.2514038-27.815918-18.6088867-.7225342-1.0522461-.4828491-2.4899292.5247192-3.2735596l13.270752-10.3217163c1.09375-.850708,2.6615601-.6014404,3.4700317.5238037,7.0321655,9.7872314,17.8201294,15.5836792,30.8162231,15.5836792,11.6945801,0,20.5444946-5.689209,20.5444946-13.9069824,0-6.3214111-4.4249878-9.1660156-19.2802124-12.3267212-25.6015015-5.3731689-35.7156982-14.8551636-35.7156982-30.3425293,0-17.9693604,15.1018677-31.5436401,37.881897-33.3066406l2.4869995-11.8612061c.2353516-1.1224976,1.2252808-1.9263916,2.3721313-1.9263916h18.7318115c1.5452881,0,2.6959839,1.4266968,2.3687744,2.9370117l-2.8794556,13.289978c9.8026123,3.017334,17.7843018,8.4124756,22.7526855,15.0700684.7700806,1.0319214.5721436,2.4931641-.4235229,3.3096313Z"/>
  <g>
    <path class="cls-1" d="M320.4302979,141.8074951c11.1359558,0,19.450592-6.4135132,23.0286255-17.0861511.430542-1.2841873,1.7980957-1.9954758,3.0815125-1.5626831l14.2938538,4.8200836c1.2999573.4383545,1.9832458,1.8718262,1.4986267,3.1552582-6.6295166,17.5577698-21.1579285,28.5043335-41.9026184,28.5043335-28.3680115,0-48.9992981-22.4733734-48.9992981-54.5252991s20.6313171-54.5252953,48.9992981-54.5252953c20.7446899,0,35.2731323,10.9465599,41.9026184,28.5043297.4845886,1.283432-.1986694,2.7169037-1.4986267,3.1552582l-14.2938538,4.8200836c-1.2834167.4327927-2.6509705-.2784958-3.0815125-1.5626831-3.5780334-10.6726151-11.8926697-17.0859528-23.0286255-17.0859528-16.7996521,0-28.6626892,14.5157623-28.6626892,36.6942596s11.8630371,36.694458,28.6626892,36.694458Z"/>
    <path class="cls-1" d="M417.2474365,121.9126968l-15.9155884,3.3158646c-7.1473389,1.4734116-12.4523926,3.7576904-12.4523926,10.3154602,0,5.6739197,4.2001038,8.9158173,10.6842957,8.9158173,9.0629578,0,17.6836853-4.7892761,17.6836853-13.8522339v-8.6949081ZM369.9432373,136.5022278c0-15.1049347,11.7154846-21.589325,26.9675598-24.5367355l20.3366394-4.0527725v-1.2524948c0-6.9993973-3.6103516-11.3466492-12.5995483-11.3466492-7.2618103,0-11.3913879,2.9516068-13.5324402,8.8548279-.4080811,1.1251144-1.5888367,1.7743301-2.7607422,1.5313568l-13.3128052-2.76017c-1.4706116-.3049088-2.3040771-1.856987-1.7686768-3.2601929,4.4518738-11.6674881,15.6091309-20.5766907,32.1115723-20.5766907,19.0837402,0,30.5783081,8.9158173,30.5783081,26.8210144v32.4941406c0,3.4731293,1.2167053,4.9993896,4.2036133,5.1332092,1.3087769.0586243,2.3543396,1.1095581,2.3543396,2.4196472v9.8819275c0,1.2451324-.9481506,2.2945557-2.1874084,2.4155426-11.6161499,1.1340332-18.3233948-1.504425-21.1702271-7.5454559-4.936615,5.4526062-12.8946228,8.6207428-22.9891663,8.6207428-14.9573975,0-26.2310486-9.0627594-26.2310486-22.8412323l.0000305-.0000153Z"/>
    <path class="cls-1" d="M459.2670593,134.0177155c1.0151978-.9234772,2.600647-.8265686,3.4768677.2297058,5.1531677,6.2120056,13.4003296,10.1386566,21.40625,10.1386566,7.2210999,0,13.704895-2.5053864,13.704895-8.7686768,0-6.2624969-6.1213379-6.9712524-18.4205933-9.431015-12.3847351-2.47686-26.3048401-5.6739197-26.3048401-22.2524567,0-14.5151749,12.7470703-24.8312225,30.9467773-24.8312225,12.6019287,0,23.9445496,4.9752274,30.1851196,12.1893463.8414307.9727325.8143921,2.4212189-.0951538,3.330658l-8.4131775,8.4126205c-.9819946.9819183-2.6055298.9557953-3.5140076-.0944824-4.7677002-5.511734-11.5158386-8.5854721-18.9734497-8.5854721-6.8526306,0-11.3466492,3.0207901-11.3466492,7.7368927,0,5.305069,5.3784485,6.2626877,15.0311584,8.2522888,13.3364563,2.8000717,29.6201172,5.7472916,29.6201172,23.3574219,0,15.9156036-14.6627197,25.9363861-32.715271,25.9363861-13.2769165,0-26.8780212-4.8026276-34.287262-13.7371521-.8149719-.9827423-.6783447-2.4436951.2660828-3.3027802l9.433136-8.5807037v-.0000153Z"/>
    <path class="cls-1" d="M528.8665161,52.2084999h14.3096313c1.338562,0,2.4237061,1.0851402,2.4237061,2.4237328v34.0492096c4.3480225-5.0839615,11.3474121-9.5787506,21.2948608-9.5787506,16.2102661,0,26.0101318,11.1267242,26.0101318,27.852211v48.6389389c0,1.3385925-1.085144,2.4237366-2.4237061,2.4237366h-14.3100586c-1.338562,0-2.4237061-1.085144-2.4237061-2.4237366v-43.1123657c0-9.1367264-3.6841431-15.6948853-12.9683838-15.6948853-7.5891724,0-15.1790771,5.5265732-15.1790771,16.1369095v42.6703415c0,1.3385925-1.085144,2.4237366-2.4237061,2.4237366h-14.3096313c-1.338562,0-2.4237061-1.085144-2.4237061-2.4237366V54.6322327c0-1.3385887,1.085144-2.4237328,2.4237061-2.4237328h-.000061Z"/>
    <path class="cls-1" d="M662.3856201,117.1236115h31.6099243l-15.9155884-42.4415436-15.6942749,42.4415436h-.000061ZM690.5341187,53.7777519l38.0359497,100.9616127c.597168,1.585083-.5742798,3.2782135-2.2681274,3.2782135h-15.2993774c-1.0109253,0-1.9157104-.6274567-2.2700195-1.5742798l-8.1791382-21.8571167h-44.6524658l-8.107666,21.8507996c-.3525391.9501038-1.2589722,1.5805817-2.2723389,1.5805817h-14.9285889c-1.6931763,0-2.864624-1.6919708-2.2686157-3.276825l37.9655762-100.9616165c.3553467-.944912,1.2590942-1.5706367,2.2686157-1.5706367h19.7080078c1.0089722,0,1.9124146.625061,2.2681274,1.5692482l.000061.0000191Z"/>
    <path class="cls-1" d="M756.5502319,121.6182098c0,13.7050934,7.8104858,21.441391,18.199707,21.441391,12.2315063,0,18.7890625-9.6523285,18.7890625-23.7256699,0-13.9997787-6.5575562-23.6524887-18.7890625-23.6524887-10.3892212,0-18.199707,7.5895462-18.199707,21.5155487v4.4212189ZM756.9920654,149.9862061v31.9856567c0,1.3385925-1.085144,2.4237366-2.4237061,2.4237366h-14.3100586c-1.338562,0-2.4237061-1.085144-2.4237061-2.4237366v-98.9716263c0-1.3385925,1.085144-2.4237289,2.4237061-2.4237289h14.3100586c1.338562,0,2.4237061,1.085144,2.4237061,2.4237289v5.6812134c4.7161255-5.6733246,12.0843506-9.5787506,21.9575806-9.5787506,21.5161743,0,33.8943481,18.2738495,33.8943481,40.2312317,0,22.0309525-12.3782349,40.3044052-33.8944092,40.3044052-9.87323,0-17.2414551-3.9050293-21.9575806-9.6521301h.000061Z"/>
    <path class="cls-1" d="M841.6526489,121.6182098c0,13.7050934,7.8104858,21.441391,18.1992798,21.441391,12.2315063,0,18.7894287-9.6523285,18.7894287-23.7256699,0-13.9997787-6.5579834-23.6524887-18.7894287-23.6524887-10.388855,0-18.1992798,7.5895462-18.1992798,21.5155487v4.4212189ZM842.0944824,149.9862061v31.9856567c0,1.3385925-1.085144,2.4237366-2.4237061,2.4237366h-14.3100586c-1.338562,0-2.4237061-1.085144-2.4237061-2.4237366v-98.9716263c0-1.3385925,1.085144-2.4237289,2.4237061-2.4237289h14.3100586c1.338562,0,2.4237061,1.085144,2.4237061,2.4237289v5.6812134c4.7156982-5.6733246,12.0843506-9.5787506,21.9575806-9.5787506,21.5153809,0,33.8939819,18.2738495,33.8939819,40.2312317,0,22.0309525-12.3786011,40.3044052-33.8939819,40.3044052-9.87323,0-17.2418823-3.9050293-21.9575806-9.6521301Z"/>
    <g>
      <path class="cls-1" d="M984.7635498,69.8186264v85.7742386c0,1.3385925-1.085144,2.4237366-2.4237061,2.4237366h-15.414978c-1.338562,0-2.4237061-1.085144-2.4237061-2.4237366v-85.7742386h-31.2493286c-1.338562,0-2.4237061-1.085144-2.4237061-2.4237289v-12.7628593c0-1.3385887,1.085144-2.4237328,2.4237061-2.4237328h82.6873779c1.338562,0,2.4237061,1.0851402,2.4237061,2.4237328v12.7628593c0,1.3385925-1.085144,2.4237289-2.4237061,2.4237289h-31.1756592Z"/>
      <path class="cls-1" d="M1056.6029053,121.9123001l-15.9151611,3.3152771c-7.1473389,1.4741974-12.4527588,3.7586746-12.4527588,10.3158493,0,5.6735229,4.2000732,8.9154205,10.6843262,8.9154205,9.0629883,0,17.6837158-4.7890778,17.6837158-13.8520355v-8.6945038l-.0001221-.0000076ZM1009.2987061,136.501236c0-15.1049347,11.7154541-21.5887299,26.9680176-24.5363464l20.3361816-4.0521774v-1.2524948c0-7.0001831-3.6103516-11.347435-12.5999756-11.347435-7.2614746,0-11.3909912,2.9515991-13.5317383,8.8550797-.4080811,1.1251831-1.5887451,1.7744675-2.7607422,1.5314941l-13.3128052-2.7600327c-1.4705811-.3048859-2.3040771-1.8568802-1.7687378-3.2600861,4.4512329-11.6678238,15.6088867-20.5767441,32.1109619-20.5767441,19.0837402,0,30.5787354,8.9158173,30.5787354,26.8204269v32.4939499c0,3.4732056,1.2164307,5.0000305,4.2030029,5.1336823,1.3088379.0585785,2.3544922,1.1094971,2.3544922,2.4196472v9.8814392c0,1.2451172-.9481201,2.2945557-2.1873779,2.4155426-11.6157227,1.1340332-18.322998-1.5042267-21.1697998-7.5450592-4.9370117,5.4526062-12.8946533,8.6211395-22.9891357,8.6211395-14.9577637,0-26.2310791-9.0629578-26.2310791-22.8420105v-.0000153Z"/>
      <path class="cls-1" d="M1123.5056152,132.2281494l-16.595459,24.7158203c-.4501953.6704407-1.2047119,1.0726318-2.012207,1.0726318h-14.7734375c-1.9432373,0-3.0963135-2.1722412-2.0075684-3.7817993l24.5574951-36.3013-22.7150879-33.575325c-1.0888672-1.6095505.064209-3.781868,2.0074463-3.781868h15.6422119c.81604,0,1.5773926.410675,2.0255127,1.0926666l14.5344238,22.1174088,14.7539062-22.1307907c.4494629-.6742783,1.2062988-1.0792847,2.0167236-1.0792847h14.8411865c1.9432373,0,3.0964355,2.172287,2.0074463,3.7818375l-22.7143555,33.5753555,24.6870117,36.2962646c1.0944824,1.6091003-.0581055,3.7868347-2.0041504,3.7868347h-15.572876c-.8059082,0-1.55896-.400528-2.0095215-1.0686798l-16.6688232-24.7197723h.0001221Z"/>
      <path class="cls-1" d="M1181.6401367,109.9021225h33.8205566c-.1479492-8.1055374-5.2316895-15.1049347-15.8417969-15.1049347-8.6949463,0-15.4000244,5.1575317-17.9787598,15.1049347ZM1162.4821777,119.3335342c0-22.7682495,15.5471191-40.2310333,37.2834473-40.2310333,22.694458,0,34.8521729,17.0205612,34.8521729,38.4625473v3.5448685c0,1.3385925-1.085083,2.4237289-2.4237061,2.4237289h-51.3642578c1.3996582,12.5257721,8.9891357,20.1153259,19.7468262,20.1153259,7.5418701,0,13.6931152-3.3856354,16.5377197-9.773407.5135498-1.1533661,1.8453369-1.6983948,3.0307617-1.263916l11.604248,4.2531128c1.3321533.488266,1.9831543,2.0220642,1.3653564,3.2993317-5.9829102,12.3696289-18.0593262,19.4738617-32.6121826,19.4738617-22.4727783,0-38.0203857-16.3578186-38.0203857-40.3044205Z"/>
      <path class="cls-1" d="M1251.3648682,134.0177002c1.0152588-.9234467,2.600708-.8264923,3.4769287.2298126,5.15271,6.211853,13.4003906,10.1379547,21.4055176,10.1379547,7.2207031,0,13.7053223-2.5049896,13.7053223-8.76828s-6.1218262-6.9718628-18.4210205-9.4314117c-12.3839111-2.4764938-26.3044434-5.6735229-26.3044434-22.2518616,0-14.5159607,12.7467041-24.8314209,30.9467773-24.8314209,12.6019287,0,23.9449463,4.9752579,30.1849365,12.1892471.8413086.9726944.8143311,2.421051-.0950928,3.3304825l-8.4123535,8.4129105c-.9819336.9820099-2.6055908.9559784-3.5140381-.0943069-4.7685547-5.5123672-11.5163574-8.5858612-18.9736328-8.5858612-6.8530273,0-11.3477783,3.0209885-11.3477783,7.7362976,0,5.3054657,5.3792725,6.2636719,15.0316162,8.2526855,13.336792,2.7996826,29.6204834,5.7472916,29.6204834,23.3576202,0,15.9156036-14.6630859,25.9363708-32.7148438,25.9363708-13.27771,0-26.8791504-4.802475-34.2874756-13.7373199-.8148193-.9827576-.6781006-2.4436493.2662354-3.3026581l9.4331055-8.5802612h-.0002441Z"/>
    </g>
  </g>
</svg>