<svg width="20" height="20" viewBox="0 0 20 20" xmlns="http://www.w3.org/2000/svg"><path d="M9.997.04C7.282.04 6.94.05 5.875.1 4.811.148 4.085.317 3.45.563a4.9 4.9 0 0 0-1.771 1.151A4.89 4.89 0 0 0 .525 3.481C.278 4.116.109 4.841.06 5.903.011 6.967 0 7.307 0 10.017s.011 3.049.06 4.113c.049 1.062.218 1.787.465 2.422a4.89 4.89 0 0 0 1.153 1.767 4.902 4.902 0 0 0 1.77 1.15c.636.248 1.363.416 2.427.465 1.066.048 1.407.06 4.122.06s3.055-.012 4.122-.06c1.064-.049 1.79-.217 2.426-.464a4.902 4.902 0 0 0 1.77-1.15 4.89 4.89 0 0 0 1.154-1.768c.247-.635.416-1.36.465-2.422.048-1.064.06-1.404.06-4.113 0-2.71-.012-3.05-.06-4.114-.049-1.062-.218-1.787-.465-2.422a4.89 4.89 0 0 0-1.153-1.767 4.9 4.9 0 0 0-1.77-1.15C15.908.316 15.182.147 14.118.1 13.052.05 12.712.04 9.997.04m0 1.797c2.67 0 2.985.01 4.04.058.974.045 1.503.207 1.856.344.466.181.8.397 1.15.746.349.35.566.682.747 1.147.137.352.3.88.344 1.853.048 1.052.058 1.368.058 4.032 0 2.664-.01 2.98-.058 4.031-.044.973-.207 1.501-.344 1.853a3.091 3.091 0 0 1-.748 1.147c-.35.35-.683.565-1.15.746-.352.137-.88.3-1.856.344-1.054.048-1.37.058-4.04.058-2.669 0-2.985-.01-4.039-.058-.974-.044-1.504-.207-1.856-.344a3.097 3.097 0 0 1-1.15-.746 3.09 3.09 0 0 1-.747-1.147c-.137-.352-.3-.88-.344-1.853-.049-1.052-.059-1.367-.059-4.031 0-2.664.01-2.98.059-4.032.044-.973.207-1.501.344-1.853a3.09 3.09 0 0 1 .748-1.147c.35-.349.682-.565 1.149-.746.352-.137.882-.3 1.856-.344 1.054-.048 1.37-.058 4.04-.058zm0 11.505a3.329 3.329 0 0 1-3.332-3.325A3.329 3.329 0 0 1 9.997 6.69a3.329 3.329 0 0 1 3.332 3.326 3.329 3.329 0 0 1-3.332 3.325zm0-8.449a5.128 5.128 0 0 0-5.134 5.124 5.128 5.128 0 0 0 5.134 5.123 5.128 5.128 0 0 0 5.133-5.123 5.128 5.128 0 0 0-5.133-5.124zm6.536-.202c0-.661-.537-1.197-1.2-1.197a1.198 1.198 0 1 0 1.2 1.197z" fill="#CDCDCD" fill-rule="evenodd"/></svg>